<?xml version="1.0" encoding="UTF-8"?>
<svg width="51px" height="20px" viewBox="0 0 51 20" version="1.1" xmlns="http://www.w3.org/2000/svg" xmlns:xlink="http://www.w3.org/1999/xlink">
    <!-- Generator: Sketch 64 (93537) - https://sketch.com -->
    <title>logo</title>
    <desc>Created with Sketch.</desc>
    <g id="Page-1" stroke="none" stroke-width="1" fill="none" fill-rule="evenodd">
        <g id="logo" fill="#EFDDC6" fill-rule="nonzero">
            <path d="M50.7185487,11.6964825 C50.7185487,18.1687251 39.3659786,19.0364771 25.3592746,19.0364771 C11.3587891,19.0364771 0,18.168612 0,11.6964825 C0,6.8582141 6.3376992,2.7069113 15.3849321,0.9205294 C13.834737,3.5527292 12.7482663,6.3417462 12.0637316,8.517175 C11.3394555,10.8137498 11.030287,12.4434276 10.9949551,12.6311108 C11.0832849,12.4345748 11.732516,10.9749199 12.8785704,9.0625868 C13.4969073,8.0401658 14.2521059,6.8874407 15.1287898,5.7634899 C16.0076784,4.6328684 17.0013816,3.5154752 18.0525204,2.568184 C18.5824992,2.1022436 19.1146827,1.6473494 19.6623557,1.2675171 C20.1967496,0.8744509 20.7488264,0.5520598 21.2788053,0.2671998 C21.3803859,0.2097868 21.4797563,0.1589936 21.5813369,0.1082061 C22.3188979,0.0574186 23.0674823,0.0198763 23.8204762,0 C21.9677834,2.8883986 20.7024483,6.0861353 19.9361697,8.5147102 C19.2118935,10.8112851 18.9093392,12.4409628 18.8718026,12.628646 C18.9601324,12.4321101 19.6027494,10.9724552 20.7488038,9.060122 C21.3671407,8.037701 22.1223393,6.8849759 22.9990232,5.7610251 C23.8779118,4.6304037 24.871615,3.5130105 25.9227538,2.5657193 C26.4527326,2.0997789 26.9871208,1.6448846 27.5325891,1.2650524 C28.066983,0.8719861 28.6190598,0.5495951 29.1490386,0.264735 C29.2373684,0.2139475 29.3279086,0.1697798 29.4162384,0.1278224 C29.9749237,0.1631543 30.5269609,0.2139418 31.0680198,0.2801906 C29.3102426,3.0891066 28.0979338,6.1605528 27.3603729,8.5122455 C26.6360968,10.8088203 26.3335425,12.4384981 26.2960058,12.6261813 C26.3843356,12.4296453 27.0269526,10.9699904 28.173007,9.0576573 C28.7913439,8.0352363 29.5465425,6.8825112 30.4232264,5.7585604 C31.302115,4.6279389 32.2958182,3.5105457 33.346957,2.5632545 C33.8769358,2.0973141 34.411324,1.6424199 34.9567923,1.2625876 C35.1113709,1.1455513 35.2725693,1.0373452 35.4315629,0.9357702 C44.4279179,2.7443122 50.719261,6.882839 50.719261,11.6964599 L50.7185487,11.6964825 Z"></path>
        </g>
    </g>
</svg>