<?xml version="1.0" encoding="UTF-8"?>
<svg width="9px" height="12px" viewBox="0 0 9 12" version="1.1" xmlns="http://www.w3.org/2000/svg" xmlns:xlink="http://www.w3.org/1999/xlink">
    <!-- Generator: Sketch 64 (93537) - https://sketch.com -->
    <title>pause</title>
    <desc>Created with Sketch.</desc>
    <g id="Page-1" stroke="none" stroke-width="1" fill="none" fill-rule="evenodd">
        <g id="pause" fill="#242E35" fill-rule="nonzero">
            <path d="M1.55938212,11.9707938 C2.37107624,11.9707938 3.02974388,11.3121262 3.02974388,10.5004321 L3.02974388,1.67619676 C3.02974388,0.864502647 2.37107624,0.205835 1.55938212,0.205835 C0.746655647,0.205835 0.087988,0.864502647 0.087988,1.67619676 L0.087988,10.5004321 C0.087988,11.3121262 0.746655647,11.9707938 1.55938212,11.9707938 Z" id="Fill-2"></path>
            <path d="M7.44061741,11.9707938 C8.25334388,11.9707938 8.91201153,11.3121262 8.91201153,10.5004321 L8.91201153,1.67619676 C8.91201153,0.864502647 8.25334388,0.205835 7.44061741,0.205835 C6.62892329,0.205835 5.97025565,0.864502647 5.97025565,1.67619676 L5.97025565,10.5004321 C5.97025565,11.3121262 6.62892329,11.9707938 7.44061741,11.9707938 Z" id="Fill-3"></path>
        </g>
    </g>
</svg>