<?xml version="1.0" encoding="UTF-8"?>
<svg width="51px" height="20px" viewBox="0 0 51 20" version="1.1" xmlns="http://www.w3.org/2000/svg" xmlns:xlink="http://www.w3.org/1999/xlink">
    <!-- Generator: Sketch 64 (93537) - https://sketch.com -->
    <title>logo</title>
    <desc>Created with Sketch.</desc>
    <g id="Page-1" stroke="none" stroke-width="1" fill="none" fill-rule="evenodd">
        <g id="feed" transform="translate(-20.000000, -34.000000)" fill="#EFDDC6">
            <path d="M70.7185487,45.6964825 C70.7185487,52.1687251 59.3659786,53.0364771 45.3592746,53.0364771 C31.3587891,53.0364771 20,52.168612 20,45.6964825 C20,40.8582141 26.3376992,36.7069113 35.3849321,34.9205294 C33.834737,37.5527292 32.7482663,40.3417462 32.0637316,42.517175 C31.3394555,44.8137498 31.030287,46.4434276 30.9949551,46.6311108 C31.0832849,46.4345748 31.732516,44.9749199 32.8785704,43.0625868 C33.4969073,42.0401658 34.2521059,40.8874407 35.1287898,39.7634899 C36.0076784,38.6328684 37.0013816,37.5154752 38.0525204,36.568184 C38.5824992,36.1022436 39.1146827,35.6473494 39.6623557,35.2675171 C40.1967496,34.8744509 40.7488264,34.5520598 41.2788053,34.2671998 C41.3803859,34.2097868 41.4797563,34.1589936 41.5813369,34.1082061 C42.3188979,34.0574186 43.0674823,34.0198763 43.8204762,34 C41.9677834,36.8883986 40.7024483,40.0861353 39.9361697,42.5147102 C39.2118935,44.8112851 38.9093392,46.4409628 38.8718026,46.628646 C38.9601324,46.4321101 39.6027494,44.9724552 40.7488038,43.060122 C41.3671407,42.037701 42.1223393,40.8849759 42.9990232,39.7610251 C43.8779118,38.6304037 44.871615,37.5130105 45.9227538,36.5657193 C46.4527326,36.0997789 46.9871208,35.6448846 47.5325891,35.2650524 C48.066983,34.8719861 48.6190598,34.5495951 49.1490386,34.264735 C49.2373684,34.2139475 49.3279086,34.1697798 49.4162384,34.1278224 C49.9749237,34.1631543 50.5269609,34.2139418 51.0680198,34.2801906 C49.3102426,37.0891066 48.0979338,40.1605528 47.3603729,42.5122455 C46.6360968,44.8088203 46.3335425,46.4384981 46.2960058,46.6261813 C46.3843356,46.4296453 47.0269526,44.9699904 48.173007,43.0576573 C48.7913439,42.0352363 49.5465425,40.8825112 50.4232264,39.7585604 C51.302115,38.6279389 52.2958182,37.5105457 53.346957,36.5632545 C53.8769358,36.0973141 54.411324,35.6424199 54.9567923,35.2625876 C55.1113709,35.1455513 55.2725693,35.0373452 55.4315629,34.9357702 C64.4279179,36.7443122 70.719261,40.882839 70.719261,45.6964599 L70.7185487,45.6964825 Z" id="logo"></path>
        </g>
    </g>
</svg>