<?xml version="1.0" encoding="UTF-8"?>
<svg width="9px" height="12px" viewBox="0 0 9 12" version="1.1" xmlns="http://www.w3.org/2000/svg" xmlns:xlink="http://www.w3.org/1999/xlink">
    <!-- Generator: Sketch 64 (93537) - https://sketch.com -->
    <title>pause</title>
    <desc>Created with Sketch.</desc>
    <g id="Page-1" stroke="none" stroke-width="1" fill="none" fill-rule="evenodd">
        <g id="steps" transform="translate(-242.000000, -835.000000)" fill="#242E35">
            <g id="Group-2" transform="translate(87.000000, 824.000000)">
                <g id="pause" transform="translate(155.087988, 11.205835)">
                    <path d="M1.47139412,11.7649588 C2.28308824,11.7649588 2.94175588,11.1062912 2.94175588,10.2945971 L2.94175588,1.47036176 C2.94175588,0.658667647 2.28308824,-2.03392858e-13 1.47139412,-2.03392858e-13 C0.658667647,-2.03392858e-13 -2.88657986e-15,0.658667647 -2.88657986e-15,1.47036176 L-2.88657986e-15,10.2945971 C-2.88657986e-15,11.1062912 0.658667647,11.7649588 1.47139412,11.7649588 Z" id="Fill-2"></path>
                    <path d="M7.35262941,11.7649588 C8.16535588,11.7649588 8.82402353,11.1062912 8.82402353,10.2945971 L8.82402353,1.47036176 C8.82402353,0.658667647 8.16535588,-2.03392858e-13 7.35262941,-2.03392858e-13 C6.54093529,-2.03392858e-13 5.88226765,0.658667647 5.88226765,1.47036176 L5.88226765,10.2945971 C5.88226765,11.1062912 6.54093529,11.7649588 7.35262941,11.7649588 Z" id="Fill-3"></path>
                </g>
            </g>
        </g>
    </g>
</svg>